<?xml version="1.0" standalone="no"?>
<!DOCTYPE svg PUBLIC "-//W3C//DTD SVG 20010904//EN"
 "http://www.w3.org/TR/2001/REC-SVG-20010904/DTD/svg10.dtd">
<svg version="1.0" xmlns="http://www.w3.org/2000/svg"
 width="700.000000pt" height="700.000000pt" viewBox="0 0 700.000000 700.000000"
 preserveAspectRatio="xMidYMid meet">
<metadata>
Created by potrace 1.11, written by Peter Selinger 2001-2013
</metadata>
<g transform="translate(0.000000,700.000000) scale(0.100000,-0.100000)"
fill="#000000" stroke="none">
<path d="M3278 6995 c-2 -1 -42 -5 -89 -9 -47 -4 -95 -8 -105 -10 -10 -2 -46
-7 -79 -11 -32 -4 -68 -9 -80 -11 -11 -2 -45 -8 -75 -14 -83 -15 -87 -16 -200
-44 -838 -207 -1590 -740 -2073 -1472 -48 -73 -87 -135 -87 -139 0 -4 -9 -19
-20 -35 -28 -40 -162 -309 -205 -415 -100 -242 -186 -544 -219 -770 -2 -16 -8
-50 -12 -75 -20 -131 -29 -272 -29 -495 1 -194 7 -329 20 -406 2 -13 6 -46 9
-74 9 -78 23 -156 51 -285 30 -141 110 -393 173 -551 50 -123 156 -336 226
-453 36 -60 66 -113 66 -117 0 -4 3 -9 8 -11 4 -2 30 -37 57 -78 62 -93 192
-260 268 -344 160 -177 375 -373 537 -491 30 -22 57 -43 58 -47 2 -5 8 -8 13
-8 6 0 38 -19 72 -43 219 -152 564 -321 844 -412 75 -25 283 -83 327 -91 11
-2 32 -6 46 -9 51 -11 246 -44 290 -49 216 -28 633 -28 850 -1 77 9 247 39
325 56 50 11 98 22 107 24 273 60 680 231 963 405 132 81 363 244 395 280 3 3
25 22 50 42 239 195 485 473 671 758 290 443 482 972 545 1500 3 30 8 66 10
80 9 47 11 525 4 605 -12 128 -21 202 -25 227 -3 13 -8 43 -11 68 -9 67 -70
335 -94 412 -11 37 -21 70 -21 73 0 11 -74 208 -116 310 -244 584 -668 1111
-1197 1487 -70 51 -138 97 -150 104 -11 6 -52 31 -91 54 -78 48 -300 163 -385
199 -30 13 -70 30 -88 38 -126 55 -413 141 -587 178 -44 9 -89 18 -100 21 -11
2 -38 6 -60 9 -22 3 -51 7 -65 10 -13 2 -52 7 -86 11 -33 3 -74 8 -90 10 -31
5 -541 14 -546 9z"/>
</g>
</svg>
