<?xml version="1.0" encoding="UTF-8" standalone="no"?>
<!DOCTYPE svg PUBLIC "-//W3C//DTD SVG 1.1//EN" "http://www.w3.org/Graphics/SVG/1.1/DTD/svg11.dtd">
<svg width="100%" height="100%" viewBox="0 0 200 200" version="1.1" xmlns="http://www.w3.org/2000/svg" xmlns:xlink="http://www.w3.org/1999/xlink" xml:space="preserve" xmlns:serif="http://www.serif.com/" style="fill-rule:evenodd;clip-rule:evenodd;stroke-linejoin:round;stroke-miterlimit:2;">
    <g transform="matrix(4.22851,0,0,4.22851,0,-2.96841)">
        <path d="M47.298,24.351C47.298,11.29 36.71,0.702 23.649,0.702C15.493,0.702 8.301,4.831 4.05,11.113L42.471,38.665C45.497,34.691 47.298,29.732 47.298,24.351Z" style="fill:url(#_Linear1);"/>
        <path d="M6.656,32.341C7.066,31.229 7.636,29.744 8.47,28.4C8.961,27.611 9.465,27.136 10.349,26.626C10.174,26.633 9.918,26.649 9.689,26.685C9.62,26.696 9.593,26.626 9.651,26.588C10.098,26.288 11.192,25.587 12.018,25.334C12.018,25.334 11.182,23.667 11.115,22.476C11.115,22.476 11.08,22.542 11.035,22.651C10.989,22.762 10.933,22.914 10.89,23.086C10.874,23.152 10.805,23.153 10.787,23.088C10.706,22.807 10.562,22.251 10.449,21.541C10.282,20.499 10.184,19.124 10.448,17.789C10.375,17.847 10.279,17.919 10.192,17.969C10.051,18.047 9.857,18.139 9.608,18.211C9.545,18.229 9.51,18.175 9.552,18.125C9.755,17.885 9.919,17.477 10.171,16.533C10.239,16.278 10.312,15.979 10.395,15.663L4.05,11.113C3.324,12.185 2.689,13.324 2.144,14.513C0.771,17.51 0,20.839 0,24.351C0,30.438 2.3,35.986 6.078,40.177C5.358,36.196 6.378,33.094 6.656,32.341Z" style="fill:rgb(0,135,82);fill-rule:nonzero;"/>
        <path d="M33.926,32.538C33.604,32.781 33.199,32.995 32.682,33.131C32.615,33.148 32.581,33.086 32.632,33.04L32.665,33.01C32.777,32.908 32.896,32.778 32.933,32.663C31.965,33.044 30.645,33.195 29.76,33.195C28.874,33.195 27.148,33.018 26.93,33.018C26.713,33.018 26.628,33.237 26.825,33.385C26.923,33.457 27.228,33.636 27.524,33.845C27.819,34.054 28.107,34.294 28.17,34.491C28.21,34.617 28.229,34.729 28.239,34.835C28.249,34.941 28.25,35.04 28.255,35.14C28.264,35.338 28.287,35.536 28.424,35.787C28.561,36.037 28.98,36.34 29.45,36.651C29.687,36.806 29.936,36.964 30.171,37.118C30.405,37.272 30.625,37.423 30.802,37.566C30.979,37.708 31.1,37.83 31.195,37.941C31.29,38.051 31.359,38.15 31.43,38.245C31.57,38.437 31.721,38.616 32.109,38.853C32.496,39.088 32.784,39.132 33.042,39.155C33.171,39.165 33.291,39.171 33.413,39.193C33.533,39.214 33.655,39.251 33.786,39.327C33.934,39.41 34.064,39.565 34.194,39.75C34.325,39.935 34.456,40.151 34.605,40.355C34.902,40.765 35.268,41.132 35.839,41.132C36.201,41.132 37.493,41.954 38.593,42.63L38.593,42.664C39.69,41.767 40.71,40.78 41.63,39.703C41.919,39.365 42.2,39.02 42.471,38.665L33.926,32.538Z" style="fill:rgb(0,135,82);fill-rule:nonzero;"/>
        <path d="M35.839,41.132C35.268,41.132 34.902,40.765 34.605,40.355C34.456,40.151 34.325,39.935 34.194,39.75C34.064,39.565 33.934,39.41 33.786,39.327C33.655,39.251 33.533,39.214 33.413,39.193C33.291,39.171 33.171,39.165 33.042,39.155C32.784,39.132 32.496,39.088 32.109,38.853C31.721,38.616 31.57,38.437 31.43,38.245C31.359,38.15 31.29,38.051 31.195,37.941C31.1,37.83 30.979,37.708 30.802,37.566C30.625,37.423 30.405,37.272 30.171,37.118C29.936,36.964 29.687,36.806 29.45,36.651C28.98,36.34 28.561,36.037 28.424,35.787C28.287,35.536 28.264,35.338 28.255,35.14C28.25,35.04 28.249,34.941 28.239,34.835C28.229,34.729 28.21,34.617 28.17,34.491C28.107,34.294 27.819,34.054 27.524,33.845C27.228,33.636 26.923,33.457 26.825,33.385C26.628,33.237 26.713,33.018 26.93,33.018C27.148,33.018 28.874,33.195 29.76,33.195C30.645,33.195 31.965,33.044 32.933,32.663C32.896,32.778 32.777,32.908 32.665,33.01L32.632,33.04C32.581,33.086 32.615,33.148 32.682,33.131C33.199,32.995 33.604,32.781 33.926,32.538C34.221,32.315 34.447,32.068 34.612,31.831C34.799,31.566 34.915,31.314 34.984,31.13C35.024,31.023 35.055,30.905 35.073,30.825C35.16,30.91 35.228,31.039 35.273,31.146L35.29,31.19C35.314,31.249 35.373,31.246 35.391,31.184C35.413,31.109 35.439,31.007 35.462,30.879C35.516,30.582 35.557,30.152 35.498,29.618C35.431,28.99 35.11,28.135 34.798,27.412C34.485,26.69 34.18,26.1 34.141,26.002C34.063,25.806 34.041,25.736 34.199,25.628C34.239,25.601 34.29,25.568 34.344,25.523C34.398,25.477 34.453,25.419 34.506,25.342C34.61,25.187 34.695,24.957 34.701,24.598C34.706,24.304 34.611,23.911 34.512,23.569C34.412,23.227 34.306,22.935 34.287,22.842C34.239,22.604 34.325,22.523 34.437,22.446C34.564,22.358 34.839,22.244 35.094,22.071C35.348,21.898 35.581,21.664 35.626,21.335C35.665,21.039 35.561,20.794 35.411,20.572C35.262,20.349 35.068,20.149 34.929,19.941C34.771,19.705 34.613,19.484 34.496,19.295C34.378,19.106 34.3,18.949 34.3,18.84C34.3,18.728 34.332,18.63 34.381,18.533C34.43,18.436 34.494,18.341 34.56,18.234C34.689,18.02 34.818,17.76 34.818,17.348C34.818,17.043 34.663,16.757 34.468,16.472C34.37,16.328 34.262,16.186 34.159,16.041C34.056,15.897 33.957,15.75 33.876,15.599C34.204,15.558 34.381,15.451 34.573,15.244C34.915,14.879 35.28,13.669 35.011,12.235C34.998,12.167 34.924,12.165 34.907,12.232C34.879,12.338 34.847,12.436 34.818,12.517C34.785,12.603 34.756,12.67 34.739,12.71C34.759,11.821 34.753,8.856 32.951,6.707C32.907,6.656 32.847,6.683 32.858,6.75C32.875,6.863 32.887,6.975 32.893,7.071C32.899,7.153 32.902,7.257 32.902,7.337C32.819,7.259 32.689,7.14 32.554,7.029C32.324,6.842 31.985,6.587 31.545,6.317C30.666,5.777 29.386,5.175 27.785,4.929C25.75,4.616 24.023,4.68 22.806,4.822C21.994,4.917 21.408,5.047 21.109,5.123C21.042,5.14 21.043,5.213 21.111,5.227C21.277,5.263 21.429,5.306 21.551,5.345C21.636,5.373 21.746,5.415 21.837,5.451C18.188,6.038 15.468,7.807 13.66,9.428C12.756,10.238 12.08,11.013 11.63,11.584C11.344,11.947 11.149,12.228 11.046,12.385C11.01,12.439 11.048,12.487 11.109,12.465C11.371,12.368 11.596,12.311 11.755,12.278C11.913,12.246 12.006,12.238 12.006,12.238C11.43,12.853 11.047,13.64 10.771,14.416C10.617,14.847 10.498,15.27 10.395,15.663C10.312,15.979 10.239,16.278 10.171,16.533C9.919,17.477 9.755,17.885 9.552,18.125C9.51,18.175 9.545,18.229 9.608,18.211C9.857,18.139 10.051,18.047 10.192,17.969C10.279,17.919 10.375,17.847 10.448,17.789C10.184,19.124 10.282,20.499 10.449,21.541C10.562,22.251 10.706,22.807 10.787,23.088C10.805,23.153 10.874,23.152 10.89,23.086C10.933,22.914 10.989,22.762 11.035,22.651C11.08,22.542 11.115,22.476 11.115,22.476C11.182,23.667 12.018,25.334 12.018,25.334C11.192,25.587 10.098,26.288 9.651,26.588C9.593,26.626 9.62,26.696 9.689,26.685C9.918,26.649 10.174,26.633 10.349,26.626C9.465,27.136 8.961,27.611 8.47,28.4C7.636,29.744 7.066,31.229 6.656,32.341C6.378,33.094 5.358,36.196 6.078,40.177C10.406,44.98 16.674,48 23.649,48C29.321,48 34.52,45.994 38.593,42.664L38.593,42.63C37.493,41.954 36.201,41.132 35.839,41.132Z" style="fill:rgb(35,31,32);fill-rule:nonzero;"/>
        <path d="M10.498,31.598C10.157,31.903 9.876,32.235 9.68,32.49C9.583,32.615 9.507,32.722 9.455,32.799C9.419,32.851 9.36,32.835 9.358,32.771C9.352,32.667 9.356,32.57 9.362,32.491C9.366,32.439 9.379,32.364 9.39,32.298C9.078,32.556 8.778,32.935 8.559,33.246C8.45,33.403 8.359,33.542 8.297,33.643C8.262,33.7 8.197,33.681 8.198,33.614C8.208,32.932 8.376,32.288 8.548,31.803C8.661,31.485 8.776,31.235 8.85,31.085C8.878,31.029 8.937,31.035 8.95,31.098C8.977,31.226 9.027,31.351 9.077,31.453C9.12,31.54 9.18,31.638 9.224,31.704C9.423,31.246 9.658,30.86 9.769,30.687C9.798,30.641 9.846,30.646 9.864,30.7C9.889,30.772 9.918,30.839 9.943,30.892C9.962,30.93 9.988,30.98 10.012,31.02C10.258,30.602 10.546,30.207 10.668,30.045C10.7,30.003 10.744,30.01 10.762,30.059C10.816,30.217 10.926,30.557 11.004,30.944C11.286,30.713 11.524,30.415 11.637,30.262C11.671,30.216 11.72,30.227 11.732,30.283C11.852,30.867 11.786,31.551 11.786,31.551L11.839,31.551C12.126,31.327 12.349,31.002 12.466,30.808C12.501,30.752 12.564,30.768 12.566,30.834C12.574,31.084 12.563,31.425 12.556,31.598C12.701,31.491 12.83,31.362 12.923,31.26L12.995,31.178C13.033,31.133 13.082,31.148 13.089,31.206C13.179,31.955 13.099,32.635 12.992,33.134C12.938,33.393 12.876,33.604 12.827,33.751C12.805,33.817 12.729,33.808 12.723,33.739C12.689,33.365 12.604,33.039 12.553,32.869C12.438,33.11 12.291,33.343 12.173,33.516C12.126,33.584 12.083,33.643 12.049,33.69C12.012,33.74 11.958,33.724 11.953,33.662C11.931,33.394 11.871,33.047 11.839,32.878C11.711,33.014 11.581,33.124 11.484,33.201L11.41,33.257C11.366,33.29 11.324,33.268 11.324,33.213C11.327,32.9 11.294,32.514 11.276,32.331C11.132,32.466 10.942,32.615 10.787,32.729C10.706,32.789 10.634,32.84 10.585,32.875C10.546,32.902 10.507,32.886 10.501,32.838C10.433,32.297 10.498,31.599 10.498,31.599L10.498,31.598ZM15.172,39.576C15.214,39.619 15.243,39.623 15.296,39.616C15.434,39.594 15.578,39.521 15.619,39.499C15.661,39.476 15.7,39.497 15.698,39.546C15.691,39.698 15.64,39.879 15.586,40L15.541,40.1C15.528,40.131 15.516,40.162 15.508,40.192C15.491,40.251 15.487,40.309 15.509,40.367C15.536,40.44 15.575,40.496 15.619,40.547C15.663,40.599 15.712,40.644 15.756,40.697C15.846,40.799 15.923,40.925 15.923,41.16C15.923,41.443 15.726,41.627 15.515,41.744C15.303,41.861 15.063,41.918 14.945,41.941C14.903,41.949 14.876,41.922 14.882,41.879C14.911,41.694 14.966,41.172 14.823,40.505C14.72,40.022 14.62,39.695 14.542,39.479C14.436,39.184 14.603,38.963 14.805,38.963C15.114,38.964 15.052,39.447 15.172,39.576ZM10.535,41.36C10.534,41.358 10.448,40.632 10.59,40.106C10.605,40.05 10.664,40.05 10.679,40.106C10.734,40.305 10.848,40.676 11.04,41.095C11.296,41.655 11.69,42.299 12.264,42.731C12.312,42.768 12.283,42.827 12.224,42.813C11.781,42.695 10.818,42.379 10.208,41.737C10.209,41.787 10.239,41.867 10.288,41.969C10.364,42.125 10.486,42.333 10.672,42.543C10.71,42.586 10.679,42.634 10.624,42.618C10.529,42.589 10.395,42.541 10.236,42.469C9.911,42.32 9.48,42.065 9.058,41.637C8.235,40.805 7.445,39.319 7.531,36.7C7.533,36.639 7.597,36.627 7.62,36.684C7.62,36.684 7.78,37.094 8.033,37.334C8.056,37.182 8.108,36.891 8.19,36.588C8.3,36.179 8.481,35.657 8.766,35.167C8.794,35.118 8.844,35.123 8.862,35.178C8.914,35.332 9.017,35.619 9.144,35.87C9.144,35.87 9.315,35.335 9.506,34.98C9.531,34.935 9.574,34.935 9.6,34.978C9.621,35.015 9.648,35.06 9.68,35.112C9.757,35.236 9.86,35.392 9.968,35.522C10.057,35.362 10.287,34.956 10.485,34.652C10.515,34.605 10.563,34.612 10.581,34.664C10.642,34.848 10.778,35.24 10.925,35.568C10.96,35.49 11.008,35.386 11.049,35.304C11.111,35.18 11.188,35.035 11.267,34.913C11.295,34.87 11.339,34.873 11.36,34.92C11.531,35.281 12.18,36.791 11.869,38.27C11.854,38.338 11.779,38.338 11.764,38.27C11.742,38.169 11.712,38.041 11.673,37.898C11.581,37.559 11.439,37.135 11.238,36.778C11.231,37.004 11.268,38.037 10.962,38.652C10.932,38.71 10.868,38.699 10.86,38.633C10.838,38.443 10.793,38.097 10.728,37.7C10.632,37.111 10.493,36.408 10.316,35.926L10.256,35.937L10.247,35.884C10.247,35.884 10.245,37.387 9.941,38.63C9.925,38.697 9.855,38.698 9.837,38.632C9.736,38.255 9.523,37.367 9.454,36.369C9.407,36.464 9.332,36.724 9.262,37.102C9.173,37.587 9.093,38.266 9.132,39.04C9.135,39.108 9.071,39.129 9.034,39.073C8.846,38.788 8.462,38.189 8.235,37.721C8.234,39.541 9.012,40.729 9.727,41.253C9.691,41.129 9.634,40.94 9.604,40.771C9.56,40.531 9.528,40.226 9.558,39.91C9.564,39.85 9.629,39.842 9.648,39.899C9.691,40.022 9.754,40.192 9.837,40.375C9.999,40.736 10.236,41.149 10.535,41.36ZM24.03,39.147C24.191,39.024 24.364,38.906 24.534,38.785C24.801,38.597 25.06,38.404 25.244,38.182C25.288,38.128 25.353,38.16 25.338,38.228C25.238,38.673 25.024,38.931 24.799,39.124C24.668,39.238 24.532,39.329 24.414,39.424C24.296,39.519 24.193,39.618 24.129,39.743C24.036,39.92 24.001,40.184 23.99,40.404C23.985,40.489 23.985,40.567 23.985,40.63C23.985,40.696 23.926,40.715 23.888,40.662C23.798,40.536 23.668,40.335 23.589,40.129C23.512,39.926 23.475,39.696 23.611,39.533C23.725,39.396 23.871,39.269 24.03,39.147ZM19.957,41.037C19.911,41.386 19.803,41.769 19.501,41.769C19.2,41.769 18.907,41.284 19.087,40.873C19.142,40.747 19.254,40.564 19.381,40.424C19.508,40.285 19.652,40.188 19.773,40.234C19.893,40.28 19.95,40.393 19.972,40.539C19.994,40.685 19.98,40.864 19.957,41.037ZM18.828,39.64C18.796,39.675 18.764,39.706 18.731,39.736C18.698,39.764 18.666,39.79 18.633,39.818C18.6,39.844 18.568,39.87 18.537,39.899C18.506,39.926 18.476,39.955 18.447,39.989C18.407,40.034 18.362,40.099 18.311,40.173C18.261,40.247 18.205,40.329 18.145,40.406C18.025,40.559 17.886,40.689 17.735,40.689C17.509,40.689 17.337,40.203 17.321,39.819C17.305,39.436 17.321,38.555 17.382,37.72C17.444,36.886 17.72,35.97 18.13,35.97C18.738,35.97 19.261,38.322 19.149,38.908C19.074,39.294 18.956,39.499 18.828,39.64ZM15.145,33.621C15.12,33.481 15.068,33.365 15.019,33.255C14.734,32.623 14.387,31.891 14.676,31.435C14.88,31.114 15.373,31.111 15.696,31.5C16.002,31.868 16.3,32.405 16.457,32.626C16.614,32.847 16.756,32.992 16.926,33.027C17.078,33.057 17.184,33.036 17.27,32.985C17.313,32.959 17.35,32.928 17.386,32.891C17.43,32.845 17.485,32.871 17.477,32.935C17.43,33.308 17.273,33.646 17.09,33.969C16.985,34.153 16.872,34.332 16.766,34.512C16.661,34.692 16.562,34.871 16.486,35.054C16.219,35.701 16.22,36.407 16.267,36.814C16.274,36.873 16.226,36.9 16.179,36.862L16.128,36.818C16.072,36.772 16.016,36.724 15.963,36.667C15.857,36.553 15.762,36.4 15.709,36.149C15.634,35.801 15.725,35.489 15.84,35.182C15.898,35.028 15.962,34.876 16.014,34.722C16.061,34.581 16.099,34.439 16.114,34.291C16.043,34.416 15.9,34.656 15.738,34.874C15.557,35.12 15.352,35.337 15.222,35.329C15.159,35.327 15.131,35.279 15.124,35.187C15.121,35.143 15.123,35.09 15.128,35.028C15.133,34.966 15.141,34.896 15.149,34.819C15.184,34.51 15.23,34.086 15.145,33.621ZM15.508,24.94C15.549,24.895 15.59,24.808 15.652,24.703C15.731,24.569 15.845,24.406 15.999,24.258C16.042,24.217 16.091,24.238 16.089,24.298C16.087,24.416 16.089,24.607 16.118,24.833C16.167,25.213 16.291,25.69 16.59,26.077C16.603,26.056 16.616,26.036 16.625,26.024C16.647,25.991 16.68,25.946 16.723,25.897C16.784,25.829 16.864,25.755 16.963,25.698C17.019,25.666 17.065,25.707 17.038,25.766C16.959,25.942 16.824,26.277 16.732,26.687C16.721,26.736 16.681,26.748 16.644,26.716C16.61,26.686 16.567,26.645 16.519,26.596C16.419,26.494 16.299,26.356 16.212,26.202C16.186,26.255 16.176,26.335 16.152,26.414C16.12,26.522 16.05,26.664 15.9,26.669C15.67,26.676 15.481,26.429 15.357,26.216C15.258,26.046 15.187,25.874 15.157,25.795C15.14,25.911 15.133,26.211 15.085,26.506C15.055,26.687 15.01,26.871 14.939,27.011C14.868,27.149 14.763,27.261 14.611,27.261C14.116,27.261 13.861,26.219 13.844,25.416C13.826,24.613 13.897,23.615 14.099,22.997C14.285,22.427 14.898,22.538 14.86,23.228C14.845,23.505 14.792,23.925 14.872,24.555C14.946,24.425 15.133,23.983 15.385,23.669C15.425,23.619 15.483,23.64 15.48,23.704C15.471,23.953 15.462,24.468 15.508,24.94ZM18.869,23.475C19,23.526 19.157,23.558 19.423,23.571C19.555,23.577 19.673,23.561 19.777,23.539C19.88,23.516 19.97,23.486 20.047,23.465C20.202,23.421 20.302,23.414 20.36,23.562C20.482,23.88 19.761,24.295 19.335,24.242C19.162,24.221 19.031,24.15 18.934,24.075C18.884,24.037 18.843,23.999 18.809,23.965C18.775,23.931 18.747,23.901 18.726,23.881C18.637,23.802 18.585,23.784 18.479,23.864C18.213,24.065 17.657,23.873 17.217,23.245C16.724,22.543 16.882,21.621 17.217,21.629C17.301,21.632 17.357,21.699 17.41,21.806C17.462,21.914 17.511,22.064 17.583,22.231C17.725,22.566 17.954,22.972 18.47,23.264C18.551,23.309 18.618,23.349 18.681,23.385C18.744,23.42 18.803,23.451 18.869,23.475ZM21.384,18.012C21.526,17.968 21.694,17.929 21.904,17.923C21.969,17.92 21.99,17.979 21.938,18.018C21.747,18.162 21.586,18.297 21.465,18.373C21.376,18.431 21.274,18.423 21.148,18.327C21.101,18.291 21.056,18.253 21.021,18.222C20.982,18.189 20.991,18.146 21.04,18.131C21.073,18.12 21.109,18.109 21.145,18.096C21.217,18.069 21.295,18.039 21.384,18.012ZM21.503,20.356C21.287,20.413 21.022,20.396 20.847,20.374C20.78,20.366 20.771,20.297 20.834,20.271C21.419,20.032 21.914,19.613 22.121,19.423C22.166,19.381 22.216,19.407 22.21,19.468C22.144,20.068 21.891,20.47 21.646,20.726C21.531,20.846 21.417,20.934 21.326,20.994C21.269,21.034 21.215,20.982 21.251,20.923C21.339,20.774 21.403,20.633 21.443,20.528C21.484,20.424 21.503,20.357 21.503,20.356ZM18.989,17.514C19.021,17.507 19.256,17.46 19.485,17.442C19.598,17.433 19.714,17.431 19.803,17.446C19.848,17.453 19.891,17.465 19.924,17.487C19.959,17.509 19.987,17.544 19.988,17.592C19.993,17.698 19.913,17.788 19.78,17.87C19.647,17.952 19.462,18.026 19.255,18.096C19.048,18.166 18.819,18.234 18.6,18.304C18.399,18.369 18.205,18.436 18.045,18.511C18.831,18.489 19.185,18.66 19.161,18.873C19.137,19.076 18.89,19.171 18.571,19.253C18.411,19.294 18.234,19.332 18.058,19.38C17.882,19.427 17.707,19.483 17.552,19.56C17.131,19.771 16.681,20.24 16.338,20.655C16.173,20.855 16.031,21.044 15.929,21.185C15.887,21.243 15.814,21.206 15.835,21.138C15.925,20.85 16.047,20.583 16.156,20.37C16.24,20.209 16.352,20.028 16.433,19.901C16.178,20.021 15.964,20.177 15.811,20.304L15.752,20.354C15.698,20.4 15.638,20.353 15.669,20.29C15.918,19.773 16.355,19.294 16.832,18.873C17.106,18.631 17.394,18.409 17.666,18.209C17.923,18.022 18.166,17.855 18.372,17.713C17.442,18.034 16.659,18.385 16.264,18.57C16.199,18.6 16.153,18.533 16.204,18.483C16.968,17.732 17.804,17.193 18.571,16.764C18.991,16.53 19.39,16.329 19.746,16.145C20.085,15.969 20.384,15.808 20.625,15.648C20.476,15.656 19.996,15.745 19.469,15.905C19.404,15.924 19.367,15.865 19.415,15.816C19.797,15.429 20.216,15.103 20.77,14.937C21.394,14.749 21.713,14.704 22.144,14.594C22.448,14.516 22.909,14.325 23.319,14.193C23.524,14.128 23.716,14.077 23.87,14.064C24.024,14.051 24.139,14.074 24.19,14.156C24.357,14.425 23.94,14.953 23.315,15.25C22.706,15.538 21.209,16.183 20.627,16.318C20.913,16.366 21.198,16.362 21.469,16.342C21.754,16.321 22.021,16.282 22.253,16.247C22.485,16.213 22.683,16.184 22.827,16.184C22.971,16.185 23.062,16.215 23.081,16.296C23.159,16.623 22.255,17.044 21.223,17.093C20.895,17.108 20.488,17.077 20.088,17.11C19.688,17.143 19.294,17.241 18.989,17.514ZM29.652,26.408C29.653,26.404 29.673,26.334 29.73,26.266C29.789,26.197 29.888,26.133 30.039,26.147C30.202,26.162 30.302,26.314 30.359,26.438C30.397,26.523 30.421,26.608 30.434,26.659C30.447,26.613 30.453,26.542 30.472,26.461C30.503,26.327 30.568,26.158 30.716,26.041C31.006,25.808 31.431,25.839 32.03,26.07C32.533,26.263 32.91,26.543 33.326,27.23C33.529,27.565 33.679,27.874 33.752,28.105C33.788,28.222 33.805,28.318 33.8,28.389C33.794,28.46 33.765,28.504 33.713,28.516C33.652,28.53 33.595,28.504 33.55,28.472C33.505,28.438 33.464,28.391 33.43,28.345C33.386,28.286 33.351,28.223 33.328,28.182C33.329,28.253 33.35,28.375 33.356,28.493C33.359,28.573 33.356,28.657 33.336,28.724C33.318,28.79 33.276,28.857 33.191,28.864C33.157,28.866 33.122,28.848 33.082,28.819C33.042,28.789 32.996,28.747 32.943,28.7C32.833,28.605 32.689,28.492 32.476,28.419C32.217,28.331 31.823,28.141 31.597,27.725C31.589,27.811 31.6,27.99 31.582,28.166C31.561,28.38 31.488,28.655 31.248,28.67C31.006,28.686 30.794,28.384 30.652,28.125C30.534,27.911 30.447,27.693 30.412,27.602C30.391,27.64 30.382,27.69 30.361,27.743C30.324,27.838 30.246,27.946 30.088,27.984C29.769,28.061 28.907,27.472 28.907,26.95C28.907,26.689 29.048,26.464 29.211,26.349C29.376,26.233 29.562,26.23 29.652,26.408ZM27.67,25.762C27.627,25.801 27.581,25.845 27.535,25.896C27.411,26.032 27.406,26.148 27.426,26.225C27.439,26.278 27.402,26.308 27.353,26.287C27.079,26.168 27.027,25.852 27.196,25.605C27.394,25.32 27.788,25.282 27.855,25.461C27.88,25.531 27.847,25.588 27.783,25.655C27.751,25.688 27.712,25.723 27.67,25.762ZM29.248,23.269C29.251,23.226 29.254,23.184 29.258,23.161C29.27,23.097 29.292,23.009 29.336,22.912C29.425,22.719 29.602,22.494 29.952,22.367C30.164,22.289 30.433,22.224 30.659,22.224C30.886,22.224 31.068,22.289 31.112,22.473C31.168,22.709 31.055,22.864 30.895,22.972C30.815,23.026 30.723,23.068 30.635,23.102C30.547,23.137 30.462,23.164 30.397,23.188C30.136,23.285 29.836,23.372 29.536,23.314C29.575,23.587 29.448,23.99 29.063,23.933C28.732,23.885 28.619,23.352 28.85,23.208C28.963,23.137 29.064,23.15 29.135,23.182C29.203,23.214 29.243,23.263 29.246,23.266L29.248,23.269ZM29.41,20.695C29.365,20.722 29.318,20.752 29.259,20.782C29.2,20.81 29.129,20.839 29.035,20.863C28.848,20.913 28.569,20.948 28.117,20.948C27.891,20.948 27.705,20.929 27.54,20.9C27.375,20.872 27.231,20.835 27.086,20.801C26.798,20.733 26.511,20.675 26.065,20.719C25.617,20.762 25.194,20.878 24.86,20.939C24.526,21 24.28,21.006 24.19,20.829C24.06,20.577 24.293,20.146 24.633,19.884C24.787,19.765 24.9,19.7 25.021,19.639C25.141,19.579 25.27,19.524 25.455,19.43C25.827,19.24 26.266,19.038 26.769,19.038C27.151,19.038 27.53,19.235 27.914,19.445C28.107,19.55 28.299,19.659 28.494,19.747C28.69,19.836 28.887,19.905 29.086,19.932C29.485,19.985 29.805,19.947 30.084,19.899C30.225,19.875 30.354,19.849 30.479,19.831C30.603,19.814 30.723,19.804 30.843,19.813C31.083,19.831 31.235,19.925 31.327,20.014C31.253,19.702 31.351,19.383 31.602,19.214C31.925,18.995 32.386,19.107 32.651,19.461C32.602,19.32 32.539,19.207 32.471,19.103C32.395,18.989 32.314,18.884 32.228,18.771C32.054,18.544 31.86,18.281 31.653,17.82C31.28,16.993 31.013,16.035 30.961,15.846C30.672,15.796 30.432,15.729 30.22,15.658C30.006,15.587 29.82,15.513 29.64,15.448C29.279,15.318 28.939,15.227 28.442,15.284C27.957,15.34 27.578,15.529 27.205,15.733C27.019,15.836 26.834,15.942 26.639,16.037C26.476,16.117 26.305,16.189 26.119,16.245C26.065,16.262 26.031,16.224 26.055,16.172C26.184,15.886 26.278,15.556 26.342,15.261C26.36,15.178 26.379,15.079 26.403,14.975C26.428,14.871 26.46,14.762 26.501,14.657C26.585,14.447 26.713,14.256 26.923,14.165C27.132,14.074 27.476,14.116 27.823,14.19C28.171,14.265 28.523,14.373 28.75,14.414C28.978,14.456 29.265,14.476 29.571,14.541C29.879,14.605 30.208,14.713 30.518,14.929C31.139,15.36 31.527,15.838 31.783,16.36C31.839,16.139 31.824,15.927 31.796,15.771C31.782,15.698 31.766,15.636 31.752,15.592C31.738,15.548 31.764,15.517 31.809,15.523C32.386,15.587 32.681,15.734 32.979,16.028C33.352,16.397 33.509,17.05 33.137,17.187C32.981,17.244 32.859,17.102 32.789,16.993C32.713,16.874 32.665,16.74 32.658,16.72C32.52,16.88 32.367,16.954 32.249,16.989C32.191,17.006 32.141,17.013 32.105,17.015C32.094,17.016 32.072,17.016 32.048,17.015C32.455,17.636 32.848,18.369 33.421,19.181C33.994,19.991 34.229,20.297 34.277,20.356C34.324,20.416 34.346,20.472 34.315,20.534C34.297,20.569 34.252,20.649 34.191,20.72C34.128,20.789 34.051,20.849 33.967,20.843C33.903,20.839 33.72,20.797 33.521,20.769C33.321,20.742 33.106,20.728 32.979,20.778C32.881,20.816 32.805,20.877 32.74,20.943C32.676,21.009 32.622,21.08 32.571,21.139C32.418,21.316 32.213,21.448 31.936,21.528C31.44,21.67 30.97,21.549 30.887,21.258C30.805,20.973 31.123,20.63 31.602,20.483C31.602,20.483 31.555,20.471 31.477,20.461C31.398,20.452 31.285,20.446 31.154,20.458C30.892,20.483 30.553,20.582 30.245,20.877C29.845,21.261 29.41,21.204 29.41,20.695ZM24.973,24.652C24.956,24.611 24.827,24.3 24.606,23.997C24.384,23.694 24.068,23.397 23.678,23.382C23.116,23.36 22.635,23.766 22.308,24.155C22.262,24.209 22.193,24.17 22.217,24.103C22.316,23.821 22.452,23.556 22.575,23.346C22.694,23.142 22.801,22.99 22.848,22.925C22.165,23.318 21.647,23.835 21.341,24.184C21.294,24.238 21.225,24.195 21.251,24.129C21.451,23.624 21.703,23.227 21.948,22.913C22.094,22.728 22.236,22.571 22.365,22.437C22.495,22.304 22.609,22.193 22.698,22.1C22.926,21.862 22.923,21.475 22.677,21.252C22.628,21.207 22.658,21.147 22.724,21.16C23.367,21.288 23.609,21.962 23.522,22.36C24.455,22.748 25.249,23.572 25.752,24.31C25.77,24.337 25.762,24.371 25.734,24.388L25.231,24.668C25.291,24.691 25.397,24.697 25.528,24.72C25.725,24.755 25.977,24.826 26.202,24.974C26.655,25.269 26.754,25.55 26.626,25.706C26.563,25.785 26.454,25.792 26.33,25.763C26.206,25.732 26.067,25.664 25.942,25.592C25.859,25.545 25.776,25.51 25.693,25.479C25.61,25.448 25.527,25.42 25.448,25.39C25.29,25.328 25.146,25.251 25.031,25.095C25.002,25.115 24.969,25.13 24.933,25.142C24.769,25.192 24.605,25.123 24.564,24.991C24.524,24.858 24.621,24.709 24.784,24.659C24.85,24.639 24.915,24.638 24.973,24.652ZM16.184,13.597C16.407,13.544 16.62,13.534 16.777,13.537L16.807,13.538C16.877,13.54 16.891,13.615 16.826,13.641C16.126,13.935 15.481,14.361 15.2,14.557C15.145,14.595 15.094,14.554 15.12,14.493C15.401,13.827 15.807,13.433 16.153,13.204C16.291,13.113 16.42,13.048 16.527,13.002C16.593,12.973 16.637,13.044 16.583,13.091C16.417,13.235 16.317,13.362 16.259,13.452C16.201,13.542 16.184,13.597 16.184,13.597ZM20.938,11.159C20.631,11.248 20.013,11.44 19.393,11.701C19.327,11.728 19.283,11.659 19.337,11.611C19.477,11.486 19.677,11.313 19.932,11.111C20.454,10.694 21.204,10.153 22.121,9.646C21.845,9.688 20.367,10.013 18.554,10.821C18.49,10.849 18.446,10.79 18.491,10.737C18.587,10.625 18.726,10.468 18.897,10.288C19.232,9.938 19.691,9.502 20.2,9.147C20.002,9.198 19.212,9.461 18.465,9.787C18.4,9.815 18.356,9.75 18.406,9.7C18.817,9.289 19.791,8.347 20.644,7.77C20.425,7.852 19.464,8.269 18.301,8.983C16.989,9.789 15.42,10.974 14.374,12.495C14.469,12.453 14.689,12.314 14.998,12.147C15.34,11.961 15.793,11.739 16.29,11.557C16.356,11.534 16.397,11.599 16.345,11.647C16.201,11.78 15.989,11.98 15.741,12.227C15.285,12.683 14.712,13.294 14.242,13.919C14.388,13.858 14.597,13.775 14.795,13.704C14.861,13.679 14.902,13.75 14.847,13.795C14.721,13.898 14.554,14.037 14.368,14.2C14.022,14.502 13.609,14.883 13.278,15.249C13.233,15.3 13.171,15.267 13.187,15.201C13.215,15.083 13.259,14.92 13.323,14.723C13.455,14.315 13.67,13.763 14.005,13.178C13.906,13.232 13.669,13.417 13.355,13.705C12.957,14.07 12.436,14.597 11.942,15.251C11.9,15.306 11.831,15.274 11.847,15.205C11.861,15.151 11.878,15.089 11.897,15.019C11.975,14.745 12.107,14.355 12.323,13.888C12.753,12.962 13.513,11.735 14.841,10.521C14.555,10.598 14.256,10.722 14.04,10.817C13.974,10.846 13.929,10.776 13.983,10.728C17.171,7.899 22.145,5.92 26.795,6.393C26.68,6.315 26.285,6.118 25.699,5.921C25.63,5.897 25.649,5.809 25.722,5.817C27.575,6.003 31.252,6.787 32.727,9.783C32.757,9.844 32.703,9.89 32.647,9.849L32.577,9.798C32.432,9.694 32.234,9.564 32.008,9.452C32.062,9.56 32.25,9.837 32.445,10.255C32.678,10.748 32.92,11.438 32.985,12.253C32.989,12.312 32.943,12.336 32.897,12.298C32.615,12.062 31.738,11.405 30.505,11.2C30.436,11.188 30.433,11.111 30.501,11.095C30.734,11.04 31.117,10.967 31.615,10.94C31.577,10.905 31.503,10.876 31.394,10.841C31.217,10.782 30.952,10.704 30.599,10.627C29.891,10.473 28.827,10.32 27.405,10.326C27.334,10.326 27.319,10.247 27.386,10.222C27.446,10.2 27.517,10.175 27.6,10.149C27.903,10.055 28.36,9.946 28.979,9.887C28.899,9.835 28.689,9.757 28.396,9.67C28.099,9.582 27.717,9.485 27.295,9.419C27.224,9.408 27.225,9.322 27.296,9.313C27.68,9.263 28.311,9.198 28.997,9.196C28.909,9.15 28.682,9.076 28.349,8.995C27.91,8.887 27.292,8.767 26.568,8.715C26.496,8.71 26.49,8.627 26.56,8.61C26.951,8.516 27.652,8.377 28.453,8.342C28.453,8.342 28.277,8.253 27.992,8.148C27.706,8.043 27.312,7.921 26.874,7.854C26.807,7.844 26.799,7.776 26.861,7.751C27.079,7.666 27.462,7.532 27.811,7.503C27.755,7.47 27.639,7.439 27.474,7.406C27.227,7.356 26.87,7.302 26.428,7.28C25.552,7.238 24.342,7.326 22.992,7.845C23.077,7.863 23.265,7.87 23.508,7.898C23.795,7.931 24.154,7.992 24.503,8.106C24.565,8.126 24.564,8.188 24.502,8.208C24.168,8.311 23.359,8.593 22.525,9.12C22.687,9.129 23.249,9.098 23.802,9.143C23.869,9.149 23.881,9.216 23.82,9.245C23.558,9.37 23.037,9.636 22.452,10.028C22.551,10.025 22.784,9.981 23.106,9.942C23.431,9.903 23.849,9.868 24.3,9.871C24.372,9.871 24.383,9.957 24.313,9.976C23.884,10.088 23.152,10.299 22.423,10.602C22.534,10.628 22.832,10.65 23.169,10.708C23.235,10.72 23.242,10.789 23.178,10.811C22.725,10.972 21.527,11.431 20.209,12.225C20.15,12.262 20.099,12.209 20.136,12.151C20.171,12.097 20.213,12.034 20.262,11.964C20.418,11.741 20.646,11.446 20.938,11.159ZM10.746,28.401C10.745,28.401 10.606,28.461 10.394,28.584C10.181,28.709 9.894,28.896 9.6,29.153C9.553,29.194 9.497,29.146 9.531,29.094C9.953,28.428 11.174,26.745 12.586,27.09C13.1,27.215 13.494,28.299 13.277,29.452C13.266,29.51 13.202,29.512 13.187,29.454L13.172,29.393C13.131,29.237 13.068,29.032 12.982,28.832C12.933,29.032 12.829,29.345 12.612,29.741C12.584,29.793 12.524,29.777 12.526,29.717C12.535,29.446 12.53,28.932 12.406,28.406C12.188,28.52 11.864,28.725 11.653,29.027C11.62,29.074 11.567,29.055 11.569,28.998C11.581,28.778 11.629,28.376 11.824,28.122C11.746,28.146 11.577,28.242 11.375,28.401C11.134,28.59 10.847,28.87 10.625,29.25C10.596,29.3 10.542,29.286 10.539,29.229C10.536,29.188 10.536,29.138 10.539,29.081C10.549,28.903 10.596,28.659 10.746,28.401Z" style="fill:white;fill-rule:nonzero;"/>
    </g>
    <defs>
        <linearGradient id="_Linear1" x1="0" y1="0" x2="1" y2="0" gradientUnits="userSpaceOnUse" gradientTransform="matrix(35.5854,-43.9443,43.9443,35.5854,18.0417,31.2643)"><stop offset="0" style="stop-color:rgb(167,199,229);stop-opacity:1"/><stop offset="1" style="stop-color:rgb(0,129,191);stop-opacity:1"/></linearGradient>
    </defs>
</svg>
